<svg xmlns="http://www.w3.org/2000/svg" viewBox="0 0 32 32" width="32" height="32">
  <g stroke="#1d4ed8" stroke-width="1.4" stroke-linecap="round">
    <!-- H0 (center) -->
    <line x1="16" y1="12" x2="19.46" y2="14"/>
    <line x1="19.46" y1="14" x2="19.46" y2="18"/>
    <line x1="19.46" y1="18" x2="16" y2="20"/>
    <line x1="16" y1="20" x2="12.54" y2="18"/>
    <line x1="12.54" y1="18" x2="12.54" y2="14"/>
    <line x1="12.54" y1="14" x2="16" y2="12"/>
    <!-- H1 (right) -->
    <line x1="22.93" y1="12" x2="26.39" y2="14"/>
    <line x1="26.39" y1="14" x2="26.39" y2="18"/>
    <line x1="26.39" y1="18" x2="22.93" y2="20"/>
    <line x1="22.93" y1="20" x2="19.46" y2="18"/>
    <line x1="19.46" y1="14" x2="22.93" y2="12"/>
    <!-- H2 (lower-right) -->
    <line x1="19.46" y1="18" x2="22.92" y2="20"/>
    <line x1="22.92" y1="20" x2="22.92" y2="24"/>
    <line x1="22.92" y1="24" x2="19.46" y2="26"/>
    <line x1="19.46" y1="26" x2="16" y2="24"/>
    <line x1="16" y1="24" x2="16" y2="20"/>
    <!-- H3 (lower-left) -->
    <line x1="12.54" y1="18" x2="16" y2="20"/>
    <line x1="16" y1="24" x2="12.54" y2="26"/>
    <line x1="12.54" y1="26" x2="9.08" y2="24"/>
    <line x1="9.08" y1="24" x2="9.08" y2="20"/>
    <line x1="9.08" y1="20" x2="12.54" y2="18"/>
    <!-- H4 (left) -->
    <line x1="9.07" y1="12" x2="12.54" y2="14"/>
    <line x1="12.54" y1="18" x2="9.07" y2="20"/>
    <line x1="9.07" y1="20" x2="5.61" y2="18"/>
    <line x1="5.61" y1="18" x2="5.61" y2="14"/>
    <line x1="5.61" y1="14" x2="9.07" y2="12"/>
    <!-- H5 (upper-left) -->
    <line x1="12.54" y1="6" x2="16" y2="8"/>
    <line x1="16" y1="8" x2="16" y2="12"/>
    <line x1="12.54" y1="14" x2="9.08" y2="12"/>
    <line x1="9.08" y1="12" x2="9.08" y2="8"/>
    <line x1="9.08" y1="8" x2="12.54" y2="6"/>
    <!-- H6 (upper-right) -->
    <line x1="19.46" y1="6" x2="22.92" y2="8"/>
    <line x1="22.92" y1="8" x2="22.92" y2="12"/>
    <line x1="22.92" y1="12" x2="19.46" y2="14"/>
    <line x1="16" y1="12" x2="16" y2="8"/>
    <line x1="16" y1="8" x2="19.46" y2="6"/>
  </g>
  <g fill="#2563eb">
    <!-- center ring -->
    <circle cx="16" cy="12" r="1.4"/>
    <circle cx="19.46" cy="14" r="1.4"/>
    <circle cx="19.46" cy="18" r="1.4"/>
    <circle cx="16" cy="20" r="1.4"/>
    <circle cx="12.54" cy="18" r="1.4"/>
    <circle cx="12.54" cy="14" r="1.4"/>
    <!-- outer ring -->
    <circle cx="22.93" cy="12" r="1.4"/>
    <circle cx="26.39" cy="14" r="1.4"/>
    <circle cx="26.39" cy="18" r="1.4"/>
    <circle cx="22.93" cy="20" r="1.4"/>
    <circle cx="22.92" cy="24" r="1.4"/>
    <circle cx="19.46" cy="26" r="1.4"/>
    <circle cx="16" cy="24" r="1.4"/>
    <circle cx="12.54" cy="26" r="1.4"/>
    <circle cx="9.08" cy="24" r="1.4"/>
    <circle cx="9.08" cy="20" r="1.4"/>
    <circle cx="5.61" cy="18" r="1.4"/>
    <circle cx="5.61" cy="14" r="1.4"/>
    <circle cx="9.07" cy="12" r="1.4"/>
    <circle cx="12.54" cy="6" r="1.4"/>
    <circle cx="16" cy="8" r="1.4"/>
    <circle cx="9.08" cy="8" r="1.4"/>
    <circle cx="19.46" cy="6" r="1.4"/>
    <circle cx="22.92" cy="8" r="1.4"/>
  </g>
</svg>
